<svg data-v-d3f97b9e="" xmlns="http://www.w3.org/2000/svg" viewBox="0 0 333 93"><!----><!----><!----><g data-v-d3f97b9e="" id="fa4e1b88-51c2-4318-8fb8-e8105bf31bb1" fill="white" transform="matrix(6.1224488604322,0,0,6.1224488604322,110.2720505266772,12.125168522488615)"><path d="M3.93 1.16L3.93 1.16L3.93 1.16Q4.27 1.57 4.27 2.07L4.27 2.07L4.27 3.12L4.27 3.40L3.99 3.40L3.01 3.40L2.73 3.40L2.73 3.12L2.73 2.23L1.55 2.23L1.55 3.98L1.55 4.05L2.87 4.05L2.87 4.05Q3.46 4.05 3.86 4.45L3.86 4.45L3.86 4.45Q4.27 4.86 4.27 5.45L4.27 5.45L4.27 6.85L4.27 9.11L4.27 9.11Q4.27 9.62 3.93 10.02L3.93 10.02L3.93 10.02Q3.60 10.40 3.09 10.49L3.09 10.49L3.07 10.50L3.05 10.50L1.22 10.50L1.20 10.50L1.18 10.49L1.18 10.49Q0.67 10.40 0.34 10.02L0.34 10.02L0.34 10.02Q0 9.62 0 9.11L0 9.11L0 8.06L0 7.78L0.28 7.78L1.27 7.78L1.55 7.78L1.55 8.06L1.55 8.96L2.73 8.96L2.73 5.60L1.40 5.60L1.40 5.60Q0.81 5.60 0.41 5.19L0.41 5.19L0.41 5.19Q0 4.79 0 4.20L0 4.20L0 4.10L0 3.98L0 2.07L0 2.07Q0 1.57 0.34 1.16L0.34 1.16L0.34 1.16Q0.67 0.78 1.18 0.70L1.18 0.70L1.20 0.70L1.22 0.70L3.05 0.70L3.07 0.70L3.09 0.70L3.09 0.70Q3.60 0.78 3.93 1.16ZM9.62 1.68L9.62 1.67L9.62 1.82L9.62 4.49L9.62 4.49Q9.62 4.96 9.30 5.28L9.30 5.28L9.30 5.28Q8.97 5.60 8.51 5.60L8.51 5.60L6.72 5.60L6.71 10.50L5.18 10.50L5.18 4.06L6.71 4.06L8.08 4.06L8.08 2.25L6.71 2.25L6.71 4.06L5.18 1.02L5.18 0.70L8.51 0.70L8.51 0.70Q8.93 0.70 9.25 0.99L9.25 0.99L9.25 0.99Q9.56 1.27 9.62 1.68L9.62 1.68ZM11.48 0.70L14.07 0.70L14.07 0.70Q14.46 0.77 14.73 1.08L14.73 1.08L14.73 1.08Q14.99 1.40 14.99 1.81L14.99 1.81L14.99 2.86L14.99 3.28L14.99 3.30L14.99 8.36L14.99 9.41L14.99 9.41Q14.99 9.81 14.73 10.12L14.73 10.12L14.73 10.12Q14.46 10.43 14.07 10.50L14.07 10.50L11.48 10.50L11.48 10.50Q11.09 10.43 10.82 10.12L10.82 10.12L10.82 10.12Q10.56 9.81 10.56 9.41L10.56 9.41L10.56 1.81L10.56 1.81Q10.56 1.40 10.82 1.08L10.82 1.08L10.82 1.08Q11.09 0.77 11.48 0.70L11.48 0.70ZM13.45 3.30L13.45 3.28L13.45 2.86L13.45 2.24L12.10 2.24L12.10 8.97L13.45 8.97L13.45 8.36L13.45 3.30ZM19.40 0.70L19.40 0.70L20.38 0.70L20.38 0.70L20.38 10.50L20.38 10.50L18.84 10.50L18.84 10.50L17.44 6.12L17.44 10.50L17.44 10.50L15.90 10.50L15.90 0.70L16.46 0.70L16.46 0.70L17.44 0.70L17.44 0.70L17.44 0.73L18.84 5.35L18.84 0.70L19.40 0.70L19.40 0.70ZM25.23 1.16L25.23 1.16L25.23 1.16Q25.56 1.57 25.56 2.07L25.56 2.07L25.56 3.12L25.56 3.40L25.28 3.40L24.30 3.40L24.02 3.40L24.02 3.12L24.02 2.23L22.85 2.23L22.85 3.98L22.85 4.05L24.16 4.05L24.16 4.05Q24.75 4.05 25.16 4.45L25.16 4.45L25.16 4.45Q25.56 4.86 25.56 5.45L25.56 5.45L25.56 6.85L25.56 9.11L25.56 9.11Q25.56 9.62 25.23 10.02L25.23 10.02L25.23 10.02Q24.89 10.40 24.39 10.49L24.39 10.49L24.36 10.50L24.35 10.50L22.51 10.50L22.50 10.50L22.47 10.49L22.47 10.49Q21.97 10.40 21.63 10.02L21.63 10.02L21.63 10.02Q21.29 9.62 21.29 9.11L21.29 9.11L21.29 8.06L21.29 7.78L21.57 7.78L22.57 7.78L22.85 7.78L22.85 8.06L22.85 8.96L24.02 8.96L24.02 5.60L22.69 5.60L22.69 5.60Q22.11 5.60 21.70 5.19L21.70 5.19L21.70 5.19Q21.29 4.79 21.29 4.20L21.29 4.20L21.29 4.10L21.29 3.98L21.29 2.07L21.29 2.07Q21.29 1.57 21.63 1.16L21.63 1.16L21.63 1.16Q21.97 0.78 22.47 0.70L22.47 0.70L22.50 0.70L22.51 0.70L24.35 0.70L24.36 0.70L24.39 0.70L24.39 0.70Q24.89 0.78 25.23 1.16ZM27.40 0.70L29.99 0.70L29.99 0.70Q30.38 0.77 30.65 1.08L30.65 1.08L30.65 1.08Q30.91 1.40 30.91 1.81L30.91 1.81L30.91 2.86L30.91 3.28L30.91 3.30L30.91 8.36L30.91 9.41L30.91 9.41Q30.91 9.81 30.65 10.12L30.65 10.12L30.65 10.12Q30.38 10.43 29.99 10.50L29.99 10.50L27.40 10.50L27.40 10.50Q27.01 10.43 26.74 10.12L26.74 10.12L26.74 10.12Q26.47 9.81 26.47 9.41L26.47 9.41L26.47 1.81L26.47 1.81Q26.47 1.40 26.74 1.08L26.74 1.08L26.74 1.08Q27.01 0.77 27.40 0.70L27.40 0.70ZM29.37 3.30L29.37 3.28L29.37 2.86L29.37 2.24L28.01 2.24L28.01 8.97L29.37 8.97L29.37 8.36L29.37 3.30ZM36.26 1.68L36.26 1.67L36.26 1.82L36.26 4.49L36.26 4.49Q36.26 4.96 35.94 5.28L35.94 5.28L35.94 5.28Q35.62 5.60 35.15 5.60L35.15 5.60L33.36 5.60L33.35 10.50L31.82 10.50L31.82 4.06L33.35 4.06L34.72 4.06L34.72 2.25L33.35 2.25L33.35 4.06L31.82 1.02L31.82 0.70L35.15 0.70L35.15 0.70Q35.57 0.70 35.89 0.99L35.89 0.99L35.89 0.99Q36.20 1.27 36.26 1.68L36.26 1.68Z"></path></g><!----><g data-v-d3f97b9e="" id="8d6dce2d-7282-4b9c-a2df-14e179b51f4e" transform="matrix(1.0155554877387152,0,0,1.0155554877387152,-1.1640222934527387,-1.438882573180912)" stroke="none" fill="white"><circle cx="24.4" cy="23.8" r="15.6"></circle><path d="M86.4 14.9c-.3 0-.5-.1-.8-.1v10.4c0 1.3-.9 2.4-2 2.4-.3 0-.6-.1-.9-.2l-5.6-2.9-10.6 8.8c-5.2 4.3-10.8 8.7-17 10.7-5.4 1.8-10.8.5-18.5.1-1-.1-2-.1-3-.1h-1.2c-13.8.5-25 9.8-25 18.9v30.3h52.5V70.6c0-5.8 0-11 5.9-16l26.5-22.1c2-1.8 3.3-4.8 3.6-6.3.6-2.9 1.2-11.6-3.9-11.3z"></path><path d="M76 22.5l7.3 3.8c.1 0 .2.1.3.1.4 0 .8-.5.8-1.2V6.8c0-.5-.2-.9-.5-1.1l-7.3-3.8c-.1 0-.2-.1-.3-.1-.4 0-.8.5-.8 1.2v18.4c0 .5.2.9.5 1.1z"></path></g><!----></svg>