<svg data-v-d3f97b9e="" xmlns="http://www.w3.org/2000/svg" viewBox="0 0 58.35186035369008 60"><!----><!----><!----><!----><g data-v-d3f97b9e="" id="c8a7bd32-b1da-49a8-bf63-e16caed71752" transform="matrix(0.6564551860687581,0,0,0.6564551860687581,-1.1816189877398813,-1.1816203728532386)" stroke="none" fill="white"><circle cx="24.4" cy="23.8" r="15.6"></circle><path d="M86.4 14.9c-.3 0-.5-.1-.8-.1v10.4c0 1.3-.9 2.4-2 2.4-.3 0-.6-.1-.9-.2l-5.6-2.9-10.6 8.8c-5.2 4.3-10.8 8.7-17 10.7-5.4 1.8-10.8.5-18.5.1-1-.1-2-.1-3-.1h-1.2c-13.8.5-25 9.8-25 18.9v30.3h52.5V70.6c0-5.8 0-11 5.9-16l26.5-22.1c2-1.8 3.3-4.8 3.6-6.3.6-2.9 1.2-11.6-3.9-11.3z"></path><path d="M76 22.5l7.3 3.8c.1 0 .2.1.3.1.4 0 .8-.5.8-1.2V6.8c0-.5-.2-.9-.5-1.1l-7.3-3.8c-.1 0-.2-.1-.3-.1-.4 0-.8.5-.8 1.2v18.4c0 .5.2.9.5 1.1z"></path></g><!----></svg>